<svg width="27" height="27" viewBox="0 0 27 27" fill="none" xmlns="http://www.w3.org/2000/svg">
<g clip-path="url(#clip0_2_540)">
<path d="M8.25235 7.81643C6.75052 9.31823 6.75052 11.7618 8.25232 13.2636L9.05001 12.4659C7.9881 11.404 7.98807 9.67613 9.05004 8.61417C10.112 7.55224 11.8399 7.55224 12.9018 8.61414L13.6995 7.81646C12.1977 6.31463 9.75412 6.31466 8.25235 7.81643Z" fill="#6E9C9F"/>
<path d="M9.84133 9.39119C9.20916 10.0234 9.20913 11.052 9.8413 11.6842L10.639 10.8865C10.5458 10.7934 10.4945 10.6695 10.4945 10.5377C10.4945 10.406 10.5459 10.2821 10.639 10.1889C10.7322 10.0958 10.8561 10.0444 10.9878 10.0444C11.1196 10.0444 11.2435 10.0958 11.3366 10.1889L12.1343 9.39122C11.5022 8.75902 10.4735 8.75902 9.84133 9.39119Z" fill="#6E9C9F"/>
<path d="M19.748 7.43513L17.8548 5.54848L13.9231 9.47367L15.4473 11.0478C15.1918 11.5013 14.6376 12.3699 13.693 13.3145C12.7483 14.2592 11.8734 14.8197 11.4156 15.0792L9.8723 13.5556L6.00195 17.4029L7.8848 19.2983C8.60455 20.0181 9.69967 20.2046 10.6099 19.7625C11.9989 19.0879 14.0952 17.8431 16.194 15.7443C18.2928 13.6455 19.5376 11.5492 20.2122 10.1602C20.372 9.83109 20.4497 9.47787 20.4497 9.12692C20.4497 8.5072 20.2075 7.89464 19.748 7.43513ZM19.1974 9.66732C18.5606 10.9785 17.3842 12.9587 15.3963 14.9466C13.4084 16.9345 11.4282 18.1109 10.117 18.7477C9.63905 18.9799 9.06257 18.8806 8.68389 18.5019L7.59715 17.4079L9.87512 15.1436L11.1898 16.4415L11.5416 16.2849C11.5987 16.2595 12.9592 15.6438 14.4909 14.1121C16.0236 12.5795 16.6263 11.2305 16.6512 11.1739L16.8038 10.8268L15.5065 9.48705L17.8556 7.14178L18.9509 8.23327C19.3304 8.6133 19.4295 9.18952 19.1974 9.66732Z" fill="#6E9C9F"/>
</g>
<defs>
<clipPath id="clip0_2_540">
<rect width="17" height="17" fill="white" transform="translate(6 3)"/>
</clipPath>
</defs>
</svg>
